<svg xmlns="http://www.w3.org/2000/svg" width="90" height="90" viewBox="0 0 90 90">
  <path id="arrow-alt-circle-right" d="M8,53A45,45,0,1,0,53,8,44.992,44.992,0,0,0,8,53ZM53,13.806A39.194,39.194,0,1,1,13.806,53,39.192,39.192,0,0,1,53,13.806ZM47.194,29.774V41.387H28.323a4.368,4.368,0,0,0-4.355,4.355V60.258a4.368,4.368,0,0,0,4.355,4.355H47.194V76.226a5.805,5.805,0,0,0,9.907,4.1L80.327,57.1a5.815,5.815,0,0,0,0-8.22L57.1,25.655A5.814,5.814,0,0,0,47.194,29.774ZM76.226,53,53,76.226V58.806H29.774V47.194H53V29.774Z" transform="translate(-8 -8)" fill="#f5f8fa"/>
</svg>
