<svg xmlns="http://www.w3.org/2000/svg" width="25" height="25" viewBox="0 0 25 25">
  <path id="plus-circle" d="M26.952,20.2v.6a.607.607,0,0,1-.6.6h-4.94v4.94a.607.607,0,0,1-.6.6h-.6a.607.607,0,0,1-.6-.6v-4.94h-4.94a.607.607,0,0,1-.6-.6v-.6a.607.607,0,0,1,.6-.6h4.94v-4.94a.607.607,0,0,1,.6-.6h.6a.607.607,0,0,1,.6.6v4.94h4.94A.607.607,0,0,1,26.952,20.2ZM33,20.5A12.5,12.5,0,1,1,20.5,8,12.5,12.5,0,0,1,33,20.5Zm-1.613,0A10.887,10.887,0,1,0,20.5,31.387,10.887,10.887,0,0,0,31.387,20.5Z" transform="translate(-8 -8)" fill="#f5f8fa"/>
</svg>
