<svg xmlns="http://www.w3.org/2000/svg" width="17.5" height="20" viewBox="0 0 17.5 20">
  <path id="trash-alt" d="M13.125,2.5,11.813.75a1.876,1.876,0,0,0-1.5-.75H7.188a1.876,1.876,0,0,0-1.5.75L4.375,2.5H.938A.935.935,0,0,0,0,3.438v.078a.235.235,0,0,0,.234.234H1.25V18.125A1.875,1.875,0,0,0,3.125,20h11.25a1.875,1.875,0,0,0,1.875-1.875V3.75h1.016a.235.235,0,0,0,.234-.234V3.438a.935.935,0,0,0-.937-.937ZM7.188,1.25h3.125a.629.629,0,0,1,.5.25l.75,1H5.938l.75-1A.629.629,0,0,1,7.188,1.25ZM15,18.125a.627.627,0,0,1-.625.625H3.125a.627.627,0,0,1-.625-.625V3.75H15ZM8.125,16.406V6.094a.47.47,0,0,1,.469-.469h.312a.47.47,0,0,1,.469.469V16.406a.47.47,0,0,1-.469.469H8.594A.47.47,0,0,1,8.125,16.406ZM5,16.406V6.094a.47.47,0,0,1,.469-.469h.313a.47.47,0,0,1,.469.469V16.406a.47.47,0,0,1-.469.469H5.469A.47.47,0,0,1,5,16.406Zm6.25,0V6.094a.47.47,0,0,1,.469-.469h.313a.47.47,0,0,1,.469.469V16.406a.47.47,0,0,1-.469.469h-.312A.47.47,0,0,1,11.25,16.406Z" fill="#ccd6dd"/>
</svg>
