<svg xmlns="http://www.w3.org/2000/svg" width="22.5" height="20" viewBox="0 0 22.5 20">
  <path id="edit" d="M16.32,12.324l.781-.781a.233.233,0,0,1,.4.164v6.418A1.875,1.875,0,0,1,15.625,20H1.875A1.875,1.875,0,0,1,0,18.125V4.375A1.875,1.875,0,0,1,1.875,2.5H13.293a.233.233,0,0,1,.164.4l-.781.781a.241.241,0,0,1-.164.07H1.875a.627.627,0,0,0-.625.625v13.75a.627.627,0,0,0,.625.625h13.75a.627.627,0,0,0,.625-.625V12.488A.219.219,0,0,1,16.32,12.324Zm5.7-7.469L9.813,17.063l-3.9.434A.82.82,0,0,1,5,16.59l.434-3.9L17.645.48a1.641,1.641,0,0,1,2.32,0L22.02,2.535a1.641,1.641,0,0,1,0,2.32ZM18.363,6.746,15.758,4.141,6.633,13.262,6.309,16.2l2.934-.324,9.121-9.125Zm2.773-3.328L19.082,1.363a.389.389,0,0,0-.551,0L16.641,3.254l2.605,2.605,1.891-1.891a.389.389,0,0,0,0-.551Z" fill="#ccd6dd"/>
</svg>
