<svg xmlns="http://www.w3.org/2000/svg" width="25" height="25" viewBox="0 0 25 25">
  <path id="sync" d="M32.4,8h-.5a.6.6,0,0,0-.6.6v5.576A12.5,12.5,0,0,0,8.016,19.87a.6.6,0,0,0,.6.63h.5a.6.6,0,0,0,.6-.569,10.788,10.788,0,0,1,20.363-4.37H24.331a.6.6,0,0,0-.6.6v.5a.6.6,0,0,0,.6.6H32.4a.6.6,0,0,0,.6-.6V8.6A.6.6,0,0,0,32.4,8ZM32.38,20.5h-.5a.6.6,0,0,0-.6.569,10.788,10.788,0,0,1-20.363,4.37h5.761a.6.6,0,0,0,.6-.6v-.5a.6.6,0,0,0-.6-.6H8.6a.6.6,0,0,0-.6.6V32.4a.6.6,0,0,0,.6.6h.5a.6.6,0,0,0,.6-.6V26.819A12.5,12.5,0,0,0,32.984,21.13a.6.6,0,0,0-.6-.63Z" transform="translate(-8 -8)" fill="#d99e82"/>
</svg>
