<svg xmlns="http://www.w3.org/2000/svg" width="31.25" height="25" viewBox="0 0 31.25 25">
  <path id="barcode-read" d="M12.109,6.25h-.781a.392.392,0,0,0-.391.391V18.359a.392.392,0,0,0,.391.391h.781a.392.392,0,0,0,.391-.391V6.641A.392.392,0,0,0,12.109,6.25Zm-3.125,0H6.641a.392.392,0,0,0-.391.391V18.359a.392.392,0,0,0,.391.391H8.984a.392.392,0,0,0,.391-.391V6.641A.392.392,0,0,0,8.984,6.25ZM7.031,22.656H2.344V17.969a.784.784,0,0,0-.781-.781H.781A.784.784,0,0,0,0,17.969v6.25A.784.784,0,0,0,.781,25h6.25a.784.784,0,0,0,.781-.781v-.781A.784.784,0,0,0,7.031,22.656ZM.781,7.813h.781a.784.784,0,0,0,.781-.781V2.344H7.031a.784.784,0,0,0,.781-.781V.781A.784.784,0,0,0,7.031,0H.781A.784.784,0,0,0,0,.781v6.25A.784.784,0,0,0,.781,7.813ZM25,18.359V6.641a.392.392,0,0,0-.391-.391H22.266a.392.392,0,0,0-.391.391V18.359a.392.392,0,0,0,.391.391h2.344A.392.392,0,0,0,25,18.359ZM15.234,6.25h-.781a.392.392,0,0,0-.391.391V18.359a.392.392,0,0,0,.391.391h.781a.392.392,0,0,0,.391-.391V6.641A.392.392,0,0,0,15.234,6.25ZM30.469,17.188h-.781a.784.784,0,0,0-.781.781v4.688H24.219a.784.784,0,0,0-.781.781v.781a.784.784,0,0,0,.781.781h6.25a.784.784,0,0,0,.781-.781v-6.25A.784.784,0,0,0,30.469,17.188ZM30.469,0h-6.25a.784.784,0,0,0-.781.781v.781a.784.784,0,0,0,.781.781h4.688V7.031a.784.784,0,0,0,.781.781h.781a.784.784,0,0,0,.781-.781V.781A.784.784,0,0,0,30.469,0ZM19.922,6.25H17.578a.392.392,0,0,0-.391.391V18.359a.392.392,0,0,0,.391.391h2.344a.392.392,0,0,0,.391-.391V6.641A.392.392,0,0,0,19.922,6.25Z" fill="#f5f8fa"/>
</svg>
