<svg xmlns="http://www.w3.org/2000/svg" width="25" height="25" viewBox="0 0 25 25">
  <path id="arrow-circle-down" d="M20.5,8A12.5,12.5,0,1,0,33,20.5,12.5,12.5,0,0,0,20.5,8ZM31.387,20.5A10.887,10.887,0,1,1,20.5,9.613,10.887,10.887,0,0,1,31.387,20.5Zm-4.662-.227-.348-.348a.6.6,0,0,0-.862.01l-4.158,4.309V14.653a.607.607,0,0,0-.6-.6h-.5a.607.607,0,0,0-.6.6v9.592L15.485,19.93a.607.607,0,0,0-.862-.01l-.348.348a.605.605,0,0,0,0,.857l5.8,5.8a.605.605,0,0,0,.857,0l5.8-5.8a.6.6,0,0,0,0-.852Z" transform="translate(33 -8) rotate(90)" fill="#d99e82"/>
</svg>
