<svg xmlns="http://www.w3.org/2000/svg" width="148" height="191.925" viewBox="0 0 148 191.925">
  <g id="Group_5" data-name="Group 5" transform="translate(-114 -236)">
    <g id="coffee" transform="translate(114.395 236)">
      <path id="Path_1" data-name="Path 1" d="M147.6,268.556c0,22.645-33.043,41-73.8,41S0,291.2,0,268.556s33.043-41,73.8-41,73.8,18.356,73.8,41" transform="translate(0 -161.953)" fill="#99aab5"/>
      <path id="Path_2" data-name="Path 2" d="M147.6,240.112c0,22.645-33.043,41-73.8,41S0,262.757,0,240.112s33.043-41,73.8-41,73.8,18.356,73.8,41" transform="translate(0 -141.709)" fill="#ccd6dd"/>
      <path id="Path_3" data-name="Path 3" d="M83.924,248.568c-61.33,0-69.7-61.5-69.7-77.9h139.4c0,8.2-8.028,77.9-69.7,77.9" transform="translate(-10.122 -121.465)" fill="#f5f8fa"/>
      <path id="Path_4" data-name="Path 4" d="M140.839,50.155c-5.564-3.846-12.723-6.945-21-9.225,7.688-2.361,18.66-1.267,21,9.225M151.1,61.193c10.013-41.5-40.1-31.6-50.038-23.773a155.067,155.067,0,0,0-17.143-.959c-38.5,0-69.7,13.235-69.7,34.621S45.424,109.8,83.92,109.8s69.7-17.335,69.7-38.721a21.166,21.166,0,0,0-2.521-9.889" transform="translate(-10.119 -21.653)" fill="#ccd6dd"/>
      <path id="Path_5" data-name="Path 5" d="M165.671,114.034c0,15.851-27.537,28.7-61.5,28.7s-61.5-12.85-61.5-28.7,27.537-28.7,61.5-28.7,61.5,12.85,61.5,28.7" transform="translate(-30.367 -60.732)" fill="#8a4b38"/>
      <g id="Group_1" data-name="Group 1" transform="translate(45.056 0)">
        <path id="Path_6" data-name="Path 6" d="M253.642,79.823a4.089,4.089,0,0,1-2.9-1.2c-9.582-9.582-9.742-20.029-.513-33.875,3.03-4.547,3.69-9.2,1.96-13.846-1.89-5.064-5.9-8.184-7.1-8.512a3.941,3.941,0,0,1-3.928-4.084,4.24,4.24,0,0,1,4.277-4.084c4.088,0,9.82,4.727,13.051,10.763,4.239,7.926,3.731,16.56-1.439,24.314-8.04,12.063-6.278,17.762-.513,23.527a4.1,4.1,0,0,1-2.9,7" transform="translate(-216.696 -10.12)" fill="#d99e82"/>
        <path id="Path_7" data-name="Path 7" d="M168.633,61.5a4.089,4.089,0,0,1-2.9-1.2c-9.582-9.582-9.742-20.029-.513-33.875,2.981-4.473,3.662-8.536,2.025-12.083-1.82-3.94-5.867-6.023-6.9-6.146a4.06,4.06,0,0,1-4.055-4.1A4.138,4.138,0,0,1,160.433,0c4.088,0,10.6,3.993,13.777,9.935,1.972,3.686,4.317,11.321-2.165,21.042-8.04,12.063-6.278,17.762-.513,23.527a4.1,4.1,0,0,1-2.9,7" transform="translate(-156.288 0)" fill="#d99e82"/>
      </g>
    </g>
    <g id="Group_4" data-name="Group 4" transform="translate(-34.76)">
      <path id="Path_9" data-name="Path 9" d="M10.9-9.48h3.04a5.756,5.756,0,0,0-.68-2.2,5.35,5.35,0,0,0-1.37-1.61,6.037,6.037,0,0,0-1.88-.99,7.2,7.2,0,0,0-2.23-.34,7.213,7.213,0,0,0-2.95.58,6.31,6.31,0,0,0-2.21,1.6,7.134,7.134,0,0,0-1.38,2.39A8.923,8.923,0,0,0,.76-7.08a8.625,8.625,0,0,0,.48,2.91A6.95,6.95,0,0,0,2.62-1.82,6.321,6.321,0,0,0,4.83-.25,7.322,7.322,0,0,0,7.78.32a7.035,7.035,0,0,0,2.42-.4,5.611,5.611,0,0,0,1.92-1.16,5.8,5.8,0,0,0,1.32-1.84,7.259,7.259,0,0,0,.62-2.42H11.02a4.07,4.07,0,0,1-.99,2.32,2.906,2.906,0,0,1-2.25.88,3.666,3.666,0,0,1-1.8-.41A3.434,3.434,0,0,1,4.78-3.8a4.729,4.729,0,0,1-.67-1.53A7.269,7.269,0,0,1,3.9-7.08,7.814,7.814,0,0,1,4.11-8.9a4.82,4.82,0,0,1,.67-1.57,3.4,3.4,0,0,1,1.2-1.1,3.666,3.666,0,0,1,1.8-.41,3.264,3.264,0,0,1,1.11.19,3.228,3.228,0,0,1,.95.53,3.156,3.156,0,0,1,.7.79A2.564,2.564,0,0,1,10.9-9.48Zm7.82,2.4a7.814,7.814,0,0,1,.21-1.82,4.82,4.82,0,0,1,.67-1.57,3.4,3.4,0,0,1,1.2-1.1,3.666,3.666,0,0,1,1.8-.41,3.666,3.666,0,0,1,1.8.41,3.4,3.4,0,0,1,1.2,1.1,4.82,4.82,0,0,1,.67,1.57,7.814,7.814,0,0,1,.21,1.82,7.269,7.269,0,0,1-.21,1.75A4.729,4.729,0,0,1,25.6-3.8a3.434,3.434,0,0,1-1.2,1.09,3.666,3.666,0,0,1-1.8.41,3.666,3.666,0,0,1-1.8-.41A3.434,3.434,0,0,1,19.6-3.8a4.729,4.729,0,0,1-.67-1.53A7.269,7.269,0,0,1,18.72-7.08Zm-3.14,0a8.625,8.625,0,0,0,.48,2.91,6.95,6.95,0,0,0,1.38,2.35A6.321,6.321,0,0,0,19.65-.25,7.322,7.322,0,0,0,22.6.32a7.3,7.3,0,0,0,2.96-.57,6.343,6.343,0,0,0,2.2-1.57,6.95,6.95,0,0,0,1.38-2.35,8.625,8.625,0,0,0,.48-2.91,8.923,8.923,0,0,0-.48-2.97,7.134,7.134,0,0,0-1.38-2.39,6.332,6.332,0,0,0-2.2-1.6,7.194,7.194,0,0,0-2.96-.58,7.213,7.213,0,0,0-2.95.58,6.31,6.31,0,0,0-2.21,1.6,7.134,7.134,0,0,0-1.38,2.39A8.923,8.923,0,0,0,15.58-7.08Zm16.18-7.2V0H34.9V-5.9h5.98V-8.34H34.9v-3.3h6.9v-2.64Zm11.86,0V0h3.14V-5.9h5.98V-8.34H46.76v-3.3h6.9v-2.64Zm11.86,0V0H66.32V-2.64h-7.7v-3.5h6.92V-8.58H58.62v-3.06h7.54v-2.64Zm12.96,0V0H79.28V-2.64h-7.7v-3.5H78.5V-8.58H71.58v-3.06h7.54v-2.64Z" transform="translate(148 427.605)" fill="#8a4b38"/>
      <path id="Path_8" data-name="Path 8" d="M9.82-10.1h1.8a5.034,5.034,0,0,0-.45-2.03,3.955,3.955,0,0,0-1.12-1.41,4.62,4.62,0,0,0-1.65-.82,7.63,7.63,0,0,0-2.04-.26,7.325,7.325,0,0,0-1.91.25,5.252,5.252,0,0,0-1.66.76,3.847,3.847,0,0,0-1.17,1.3,3.784,3.784,0,0,0-.44,1.87,3.122,3.122,0,0,0,.39,1.63A3.162,3.162,0,0,0,2.61-7.75a6.044,6.044,0,0,0,1.47.66q.82.25,1.67.44t1.67.37a7.614,7.614,0,0,1,1.47.47,2.866,2.866,0,0,1,1.04.75,1.792,1.792,0,0,1,.39,1.2A2.336,2.336,0,0,1,10-2.58a2.329,2.329,0,0,1-.84.79,3.8,3.8,0,0,1-1.17.41,7.093,7.093,0,0,1-1.29.12,6.1,6.1,0,0,1-1.56-.2,3.882,3.882,0,0,1-1.33-.62,3.182,3.182,0,0,1-.92-1.07A3.225,3.225,0,0,1,2.54-4.7H.74a5.022,5.022,0,0,0,.47,2.25A4.314,4.314,0,0,0,2.49-.89,5.606,5.606,0,0,0,4.37.02a8.373,8.373,0,0,0,2.27.3A8.681,8.681,0,0,0,8.61.09,5.7,5.7,0,0,0,10.4-.65a4.2,4.2,0,0,0,1.31-1.32,3.586,3.586,0,0,0,.51-1.95,3.581,3.581,0,0,0-.39-1.76,3.474,3.474,0,0,0-1.04-1.16,5.508,5.508,0,0,0-1.47-.73q-.82-.27-1.67-.47T5.98-8.41a8.745,8.745,0,0,1-1.47-.43,2.892,2.892,0,0,1-1.04-.67,1.489,1.489,0,0,1-.39-1.07,2.319,2.319,0,0,1,.27-1.17,2.1,2.1,0,0,1,.72-.75,3.133,3.133,0,0,1,1.03-.4,5.809,5.809,0,0,1,1.18-.12,4.032,4.032,0,0,1,2.43.69A2.975,2.975,0,0,1,9.82-10.1Zm7.94-2.58V0h1.9V-12.68h4.76v-1.6H13v1.6ZM27.1-7.14a8.232,8.232,0,0,1,.28-2.13,5.785,5.785,0,0,1,.88-1.89,4.5,4.5,0,0,1,1.54-1.35,4.632,4.632,0,0,1,2.24-.51,4.632,4.632,0,0,1,2.24.51,4.5,4.5,0,0,1,1.54,1.35,5.785,5.785,0,0,1,.88,1.89,8.232,8.232,0,0,1,.28,2.13,8.232,8.232,0,0,1-.28,2.13,5.785,5.785,0,0,1-.88,1.89,4.5,4.5,0,0,1-1.54,1.35,4.632,4.632,0,0,1-2.24.51,4.632,4.632,0,0,1-2.24-.51,4.5,4.5,0,0,1-1.54-1.35,5.785,5.785,0,0,1-.88-1.89A8.232,8.232,0,0,1,27.1-7.14Zm-1.9,0a9.2,9.2,0,0,0,.43,2.81,7.081,7.081,0,0,0,1.29,2.39A6.189,6.189,0,0,0,29.06-.29a6.855,6.855,0,0,0,2.98.61,6.855,6.855,0,0,0,2.98-.61,6.189,6.189,0,0,0,2.14-1.65,7.081,7.081,0,0,0,1.29-2.39,9.2,9.2,0,0,0,.43-2.81,9.2,9.2,0,0,0-.43-2.81,7.081,7.081,0,0,0-1.29-2.39A6.3,6.3,0,0,0,35.02-14a6.761,6.761,0,0,0-2.98-.62,6.761,6.761,0,0,0-2.98.62,6.3,6.3,0,0,0-2.14,1.66,7.081,7.081,0,0,0-1.29,2.39A9.2,9.2,0,0,0,25.2-7.14ZM51.24-9.98h1.9a5.313,5.313,0,0,0-.68-2.01,4.945,4.945,0,0,0-1.3-1.45,5.7,5.7,0,0,0-1.78-.88,7.34,7.34,0,0,0-2.12-.3,6.834,6.834,0,0,0-2.91.59,6.014,6.014,0,0,0-2.12,1.61,7.061,7.061,0,0,0-1.29,2.39A9.527,9.527,0,0,0,40.5-7.1a10.069,10.069,0,0,0,.41,2.92,6.744,6.744,0,0,0,1.23,2.36A5.7,5.7,0,0,0,44.2-.25a6.884,6.884,0,0,0,2.9.57,6.018,6.018,0,0,0,4.32-1.5,6.487,6.487,0,0,0,1.86-4.2h-1.9a5.449,5.449,0,0,1-.36,1.64,3.958,3.958,0,0,1-.83,1.31,3.78,3.78,0,0,1-1.26.86,4.239,4.239,0,0,1-1.67.31,4.7,4.7,0,0,1-2.2-.48,4.3,4.3,0,0,1-1.51-1.29,5.525,5.525,0,0,1-.87-1.9,9.253,9.253,0,0,1-.28-2.31,8.272,8.272,0,0,1,.28-2.16,5.568,5.568,0,0,1,.87-1.85,4.322,4.322,0,0,1,1.5-1.29,4.639,4.639,0,0,1,2.19-.48,4.414,4.414,0,0,1,2.59.76A3.533,3.533,0,0,1,51.24-9.98Zm4.4-4.3V0h1.9V-5l2.38-2.22L65.08,0h2.4L61.22-8.52l6.02-5.76H64.78L57.54-7.16v-7.12Z" transform="translate(229 427.605)" fill="#99aab5"/>
    </g>
  </g>
</svg>
