<svg xmlns="http://www.w3.org/2000/svg" width="147.605" height="147.605" viewBox="0 0 147.605 147.605">
  <g id="coffee" transform="translate(0 0)">
    <path id="Path_1" data-name="Path 1" d="M147.6,268.556c0,22.645-33.043,41-73.8,41S0,291.2,0,268.556s33.043-41,73.8-41,73.8,18.356,73.8,41" transform="translate(0 -161.953)" fill="#99aab5"/>
    <path id="Path_2" data-name="Path 2" d="M147.6,240.112c0,22.645-33.043,41-73.8,41S0,262.757,0,240.112s33.043-41,73.8-41,73.8,18.356,73.8,41" transform="translate(0 -141.709)" fill="#ccd6dd"/>
    <path id="Path_3" data-name="Path 3" d="M83.924,248.568c-61.33,0-69.7-61.5-69.7-77.9h139.4c0,8.2-8.028,77.9-69.7,77.9" transform="translate(-10.122 -121.465)" fill="#f5f8fa"/>
    <path id="Path_4" data-name="Path 4" d="M140.839,50.155c-5.564-3.846-12.723-6.945-21-9.225,7.688-2.361,18.66-1.267,21,9.225M151.1,61.193c10.013-41.5-40.1-31.6-50.038-23.773a155.067,155.067,0,0,0-17.143-.959c-38.5,0-69.7,13.235-69.7,34.621S45.424,109.8,83.92,109.8s69.7-17.335,69.7-38.721a21.166,21.166,0,0,0-2.521-9.889" transform="translate(-10.119 -21.653)" fill="#ccd6dd"/>
    <path id="Path_5" data-name="Path 5" d="M165.671,114.034c0,15.851-27.537,28.7-61.5,28.7s-61.5-12.85-61.5-28.7,27.537-28.7,61.5-28.7,61.5,12.85,61.5,28.7" transform="translate(-30.367 -60.732)" fill="#8a4b38"/>
    <g id="Group_1" data-name="Group 1" transform="translate(45.056 0)">
      <path id="Path_6" data-name="Path 6" d="M253.642,79.823a4.089,4.089,0,0,1-2.9-1.2c-9.582-9.582-9.742-20.029-.513-33.875,3.03-4.547,3.69-9.2,1.96-13.846-1.89-5.064-5.9-8.184-7.1-8.512a3.941,3.941,0,0,1-3.928-4.084,4.24,4.24,0,0,1,4.277-4.084c4.088,0,9.82,4.727,13.051,10.763,4.239,7.926,3.731,16.56-1.439,24.314-8.04,12.063-6.278,17.762-.513,23.527a4.1,4.1,0,0,1-2.9,7" transform="translate(-216.696 -10.12)" fill="#d99e82"/>
      <path id="Path_7" data-name="Path 7" d="M168.633,61.5a4.089,4.089,0,0,1-2.9-1.2c-9.582-9.582-9.742-20.029-.513-33.875,2.981-4.473,3.662-8.536,2.025-12.083-1.82-3.94-5.867-6.023-6.9-6.146a4.06,4.06,0,0,1-4.055-4.1A4.138,4.138,0,0,1,160.433,0c4.088,0,10.6,3.993,13.777,9.935,1.972,3.686,4.317,11.321-2.165,21.042-8.04,12.063-6.278,17.762-.513,23.527a4.1,4.1,0,0,1-2.9,7" transform="translate(-156.288 0)" fill="#d99e82"/>
    </g>
  </g>
</svg>
